<svg xmlns="http://www.w3.org/2000/svg" xmlns:xlink="http://www.w3.org/1999/xlink" preserveAspectRatio="xMidYMid" width="26" height="26" viewBox="0 0 26 26">
  <defs>
    <style>
      .cls-1 {
        fill: #fff;
        fill-rule: evenodd;
      }
    </style>
  </defs>
  <path d="M5.929,4.515 L21.485,20.071 C21.876,20.462 21.876,21.095 21.485,21.485 C21.095,21.876 20.462,21.876 20.071,21.485 L4.515,5.929 C4.124,5.538 4.124,4.905 4.515,4.515 C4.905,4.124 5.538,4.124 5.929,4.515 Z" class="cls-1"/>
  <path d="M20.247,4.303 L4.303,20.247 C3.903,20.647 3.903,21.296 4.303,21.697 C4.704,22.097 5.353,22.097 5.753,21.697 L21.697,5.753 C22.097,5.353 22.097,4.704 21.697,4.303 C21.296,3.903 20.647,3.903 20.247,4.303 Z" class="cls-1"/>
</svg>
